<?xml version="1.0" encoding="utf-8"?><svg version="1.1" id="Layer_1" xmlns="http://www.w3.org/2000/svg" xmlns:xlink="http://www.w3.org/1999/xlink" x="0px" y="0px" viewBox="0 0 44.1 50.6" style="enable-background:new 0 0 44.1 50.6;" xml:space="preserve"><style type="text/css">.st0{fill:none;stroke:#f0a400;stroke-width:1.5;stroke-linecap:round;stroke-linejoin:round;stroke-miterlimit:10;}.st1{fill:#f0a400;}.st2{fill:none;stroke:#f0a400;stroke-width:1.5;stroke-linecap:round;stroke-linejoin:round;}.st3{fill:none;stroke:#f0a400;stroke-width:1.5;stroke-linecap:round;stroke-linejoin:round;stroke-dasharray:3.0,3.0;}</style><g><line class="st0" x1="22.1" y1="25.3" x2="22.1" y2="49.3"/><line class="st0" x1="22.1" y1="25.3" x2="42.8" y2="13.3"/><line class="st0" x1="22.1" y1="25.3" x2="1.3" y2="13.3"/></g><g><path class="st1" d="M22.1,1.2l20.8,12v24l-20.8,12l-20.8-12v-24L22.1,1.2 M22.1,0c-0.2,0-0.4,0.1-0.6,0.2l-20.8,12C0.2,12.4,0,12.8,0,13.3v24c0,0.4,0.2,0.8,0.6,1.1l20.8,12c0.2,0.1,0.4,0.2,0.6,0.2s0.4-0.1,0.6-0.2l20.8-12c0.4-0.2,0.6-0.6,0.6-1.1v-24c0-0.4-0.2-0.8-0.6-1.1l-20.8-12C22.5,0.1,22.3,0,22.1,0L22.1,0z"/></g><g><g><g><line class="st2" x1="22.1" y1="25.3" x2="22.1" y2="23.7"/><line class="st3" x1="22.1" y1="20.7" x2="22.1" y2="4.4"/><line class="st2" x1="22.1" y1="2.9" x2="22.1" y2="1.3"/></g></g><g><g><line class="st2" x1="22.1" y1="25.3" x2="20.7" y2="26.1"/><line class="st3" x1="18.1" y1="27.6" x2="3.9" y2="35.7"/><line class="st2" x1="2.7" y1="36.5" x2="1.3" y2="37.3"/></g></g><g><g><line class="st2" x1="22.1" y1="25.3" x2="23.4" y2="26.1"/><line class="st3" x1="26" y1="27.6" x2="40.2" y2="35.7"/><line class="st2" x1="41.5" y1="36.5" x2="42.8" y2="37.3"/></g></g></g></svg>