<svg width="71" height="73" viewBox="0 0 71 73" fill="none" xmlns="http://www.w3.org/2000/svg">
                                            <path fill-rule="evenodd" clip-rule="evenodd" d="M35.4874 64.4337C35.2096 64.4337 34.9385 64.4563 34.6758 64.4937C35.4874 63.1442 36.307 61.8023 37.1187 60.46H33.5631L31.3006 64.2475C30.2708 65.9622 29.8948 67.2001 29.8948 68.453C29.8948 71.1221 31.8943 72.9635 34.8032 72.9635C37.6971 72.9635 39.6891 71.1146 39.6891 68.4379C39.6743 66.067 37.9528 64.4337 35.4874 64.4337H35.4874ZM34.7733 70.1526C33.7733 70.1526 33.0519 69.4594 33.0519 68.4379C33.0519 67.4093 33.7735 66.7006 34.7733 66.7006C35.7807 66.7006 36.4948 67.4018 36.4948 68.4379C36.4948 69.4515 35.7878 70.1526 34.7733 70.1526ZM25.6476 64.9407L28.121 61.0115V60.4525H19.6638V63.2411H23.7983L21.7912 66.5144V67.1933H23.768C24.7302 67.1933 25.339 67.7452 25.339 68.6396C25.339 69.5341 24.7448 70.1455 23.9033 70.1455C23.0915 70.1455 22.5505 69.5714 22.5127 68.7139H19.3483C19.4234 71.2413 21.2428 72.956 23.8887 72.956C26.5948 72.956 28.5343 71.1741 28.5343 68.6913C28.5417 66.7971 27.4143 65.3806 25.6478 64.9407H25.6476ZM46.1464 60.1615C42.8612 60.1615 40.7566 62.6666 40.7566 66.5807C40.7566 70.4802 42.8765 73.0001 46.1464 73.0001C49.4235 73.0001 51.5361 70.4873 51.5361 66.5807C51.5361 62.6666 49.4313 60.1615 46.1464 60.1615V60.1615ZM46.1464 70.0855C44.8459 70.0855 44.1318 68.833 44.1318 66.5811C44.1318 64.3297 44.8533 63.0771 46.1464 63.0771C47.4316 63.0771 48.1609 64.3444 48.1609 66.5962C48.1609 68.8405 47.4467 70.0855 46.1464 70.0855V70.0855ZM35.4952 0C15.9214 0 0 15.7915 0 35.2058C0 47.4628 6.26909 58.6394 16.7711 65.1179V61.2335C8.27675 55.2319 3.2633 45.6512 3.2633 35.2051C3.2633 17.5722 17.7268 3.23456 35.4966 3.23456C53.2663 3.23456 67.73 17.5722 67.73 35.2051C67.73 45.822 62.3553 55.7603 53.5603 61.6809C53.9509 62.6282 54.2592 63.724 54.4249 64.9765C64.678 58.5497 70.9999 47.2841 70.9999 35.2054C70.9922 15.7915 55.0706 0 35.4967 0H35.4952ZM49.1022 25.9998H22.9796C21.7511 26.0051 20.5683 26.4638 19.6627 27.2874C18.757 28.1111 18.1933 29.2396 18.0816 30.4533H17.2651C16.3993 30.4533 15.5689 30.7945 14.9564 31.4021C14.3439 32.0093 14 32.8334 14 33.692V38.3076C14 39.1663 14.3439 39.9903 14.9564 40.5976C15.5688 41.2052 16.3993 41.5463 17.2651 41.5463H18.0816C18.1933 42.76 18.757 43.8886 19.6627 44.7122C20.5683 45.5359 21.751 45.9946 22.9796 45.9999H30.2042C31.8561 45.9878 33.3907 45.1506 34.2858 43.7729L36.0408 41.1008L37.7957 43.7729C38.6909 45.1506 40.2255 45.9878 41.8774 45.9999H49.102C50.4012 45.9999 51.6468 45.4876 52.5656 44.5765C53.4841 43.6655 54 42.4299 54 41.1415V30.8582C54 29.5702 53.4841 28.3342 52.5656 27.4231C51.6468 26.5121 50.4012 26.0002 49.102 26.0002L49.1022 25.9998ZM17.2653 33.692H18.0816L18.0818 38.3076H17.2653V33.692ZM50.7348 41.1415C50.7348 41.5708 50.5625 41.9828 50.2565 42.2866C49.9503 42.59 49.5351 42.7608 49.1019 42.7608H41.8774C41.3242 42.7541 40.8142 42.4626 40.5306 41.9915L38.6529 39.1576C38.0826 38.2745 37.0981 37.7403 36.0407 37.7403C34.9832 37.7403 33.9987 38.2745 33.4284 39.1576L31.5507 41.9915C31.2671 42.4626 30.7571 42.7541 30.204 42.7608H22.9794C22.5463 42.7608 22.1309 42.59 21.8249 42.2866C21.5188 41.9828 21.3466 41.5708 21.3466 41.1415V30.8582C21.3466 30.4284 21.5188 30.0169 21.8249 29.713C22.1309 29.4096 22.5463 29.2388 22.9794 29.2388H49.1019C49.5349 29.2388 49.9503 29.4096 50.2565 29.713C50.5625 30.0169 50.7348 30.4284 50.7348 30.8582V41.1415Z" fill="white"></path>
                                        </svg>