<?xml version="1.0" encoding="utf-8"?><svg version="1.1" id="Слой_1" xmlns="http://www.w3.org/2000/svg" xmlns:xlink="http://www.w3.org/1999/xlink" x="0px" y="0px" viewBox="0 0 20.6 27.6" style="enable-background:new 0 0 20.6 27.6;" xml:space="preserve"><style type="text/css">.st0{clip-path:url(#SVGID_2_);}</style><g><defs><rect id="SVGID_1_" y="0" width="20.6" height="27.6"/></defs><clipPath id="SVGID_2_"><use xlink:href="#SVGID_1_"  style="overflow:visible;"/></clipPath><path style="fill:#f0a400" class="st0" d="M10.3,15.3c2.8,0,5-2.3,5-5c0-2.8-2.3-5-5-5s-5,2.3-5,5C5.2,13.1,7.5,15.3,10.3,15.3 M10.3,7c1.8,0,3.2,1.5,3.2,3.2c0,1.8-1.5,3.2-3.2,3.2S7,12.1,7,10.3C7,8.5,8.5,7,10.3,7"/><path style="fill:#f0a400"  class="st0" d="M10.3,0C4.6,0,0,4.6,0,10.3c0,5.5,9.2,16.5,9.6,17c0.2,0.2,0.4,0.3,0.7,0.3c0.3,0,0.5-0.1,0.7-0.3c0.4-0.5,9.6-11.5,9.6-17C20.6,4.6,15.9,0,10.3,0 M10.3,1.8c4.7,0,8.5,3.8,8.5,8.5c0,4-6.4,12.4-8.5,15c-2.1-2.6-8.5-10.9-8.5-15C1.8,5.6,5.6,1.8,10.3,1.8"/></g></svg>